<svg width="30" height="37" viewBox="0 0 30 37" fill="none" xmlns="http://www.w3.org/2000/svg">
<path fill-rule="evenodd" clip-rule="evenodd" d="M29.9998 11.6667C29.9998 8.90532 27.7613 6.66675 24.9998 6.66675H11.6665C8.90514 6.66675 6.66656 8.90532 6.66656 11.6667V31.6667C6.66656 34.4281 8.90514 36.6666 11.6665 36.6666H24.9998C27.7613 36.6666 29.9998 34.4281 29.9998 31.6667V11.6667ZM26.6665 11.6667C26.6665 10.7463 25.9203 10.0001 24.9998 10.0001H11.6665C10.7461 10.0001 9.99989 10.7463 9.99989 11.6667V31.6667C9.99989 32.5871 10.7461 33.3333 11.6665 33.3333H24.9998C25.9203 33.3333 26.6665 32.5871 26.6665 31.6667V11.6667Z" fill="white"/>
<path d="M4.99998 3.33332H21.6666C22.5871 3.33332 23.3332 2.58712 23.3332 1.66666C23.3332 0.746197 22.5871 0 21.6666 0H4.99998C2.23857 0 0 2.23857 0 4.99998V28.3332C0 29.2537 0.746197 29.9999 1.66666 29.9999C2.58712 29.9999 3.33332 29.2537 3.33332 28.3332V4.99998C3.33332 4.07952 4.07952 3.33332 4.99998 3.33332Z" fill="white"/>
</svg>
