<svg width="58" height="2" viewBox="0 0 58 2" fill="none" xmlns="http://www.w3.org/2000/svg">
<path d="M14.7333 0.619664C14.4392 0.619664 13.5569 0.860537 13.0422 1.01108C12.16 1.25196 11.6453 1.37239 11.2041 1.37239C10.763 1.37239 10.1748 1.25196 9.29251 0.980974C8.77784 0.830428 7.96907 0.619664 7.67497 0.619664C7.38087 0.619664 6.57211 0.830428 6.05744 0.980974C5.17515 1.22185 4.66047 1.37239 4.1458 1.37239C3.55761 1.37239 2.96942 1.19174 2.3077 0.980974C1.7195 0.830428 1.05778 0.619664 0.616638 0.619664C0.616638 0.649773 0.616638 0.137918 0.616638 0.168027C1.35188 0.168027 2.16065 0.4089 2.89589 0.619664C3.26351 0.740101 3.92523 0.920756 4.1458 0.920756C4.36638 0.920756 5.0281 0.740101 5.39572 0.619664C6.20448 0.378791 7.01325 0.168027 7.60145 0.168027C8.11612 0.168027 8.77784 0.348682 9.80718 0.619664C10.2483 0.740101 10.91 0.920756 11.1306 0.920756C11.2777 0.920756 11.8659 0.740101 12.307 0.619664C13.2628 0.378791 14.0716 0.168027 14.7333 0.168027" fill="#DBFF00"/>
<path d="M28.8499 0.619664C28.5558 0.619664 27.6736 0.860537 27.1589 1.01108C26.2766 1.25196 25.7619 1.37239 25.3208 1.37239C24.8796 1.37239 24.2914 1.25196 23.4091 0.980974C22.8945 0.830428 22.0857 0.619664 21.7916 0.619664C21.4975 0.619664 20.6887 0.830428 20.1741 0.980974C19.2918 1.22185 18.7771 1.37239 18.2624 1.37239C17.6742 1.37239 17.0861 1.19174 16.4243 0.980974C15.8361 0.830428 15.1744 0.619664 14.7333 0.619664C14.7333 0.649773 14.7333 0.137918 14.7333 0.168027C15.4685 0.168027 16.2773 0.4089 17.0125 0.619664C17.3802 0.740101 18.0419 0.920756 18.2624 0.920756C18.483 0.920756 19.1447 0.740101 19.5124 0.619664C20.3211 0.378791 21.1299 0.168027 21.7181 0.168027C22.2328 0.168027 22.8945 0.348682 23.9238 0.619664C24.365 0.740101 25.0267 0.920756 25.2473 0.920756C25.3943 0.920756 25.9825 0.740101 26.4236 0.619664C27.3795 0.378791 28.1882 0.168027 28.8499 0.168027" fill="#DBFF00"/>
<path d="M42.9666 0.619664C42.6725 0.619664 41.7903 0.860537 41.2756 1.01108C40.3933 1.25196 39.8786 1.37239 39.4375 1.37239C38.9963 1.37239 38.4081 1.25196 37.5258 0.980974C37.0112 0.830428 36.2024 0.619664 35.9083 0.619664C35.6142 0.619664 34.8054 0.830428 34.2908 0.980974C33.4085 1.22185 32.8938 1.37239 32.3791 1.37239C31.7909 1.37239 31.2028 1.19174 30.541 0.980974C29.9528 0.830428 29.2911 0.619664 28.85 0.619664C28.85 0.649773 28.85 0.137918 28.85 0.168027C29.5852 0.168027 30.394 0.4089 31.1292 0.619664C31.4969 0.740101 32.1586 0.920756 32.3791 0.920756C32.5997 0.920756 33.2614 0.740101 33.6291 0.619664C34.4378 0.378791 35.2466 0.168027 35.8348 0.168027C36.3495 0.168027 37.0112 0.348682 38.0405 0.619664C38.4817 0.740101 39.1434 0.920756 39.364 0.920756C39.511 0.920756 40.0992 0.740101 40.5403 0.619664C41.4962 0.378791 42.3049 0.168027 42.9666 0.168027" fill="#DBFF00"/>
<path d="M57.0833 0.619664C56.7892 0.619664 55.9069 0.860537 55.3922 1.01108C54.5099 1.25196 53.9953 1.37239 53.5541 1.37239C53.113 1.37239 52.5248 1.25196 51.6425 0.980974C51.1278 0.830428 50.319 0.619664 50.0249 0.619664C49.7308 0.619664 48.9221 0.830428 48.4074 0.980974C47.5251 1.22185 47.0105 1.37239 46.4958 1.37239C45.9076 1.37239 45.3194 1.19174 44.6577 0.980974C44.0695 0.830428 43.4078 0.619664 42.9666 0.619664C42.9666 0.649773 42.9666 0.137918 42.9666 0.168027C43.7019 0.168027 44.5106 0.4089 45.2459 0.619664C45.6135 0.740101 46.2752 0.920756 46.4958 0.920756C46.7164 0.920756 47.3781 0.740101 47.7457 0.619664C48.5545 0.378791 49.3632 0.168027 49.9514 0.168027C50.4661 0.168027 51.1278 0.348682 52.1572 0.619664C52.5983 0.740101 53.26 0.920756 53.4806 0.920756C53.6276 0.920756 54.2158 0.740101 54.657 0.619664C55.6128 0.378791 56.4216 0.168027 57.0833 0.168027" fill="#DBFF00"/>
</svg>
