<svg width="57" height="2" viewBox="0 0 57 2" fill="none" xmlns="http://www.w3.org/2000/svg">
<path d="M14.4834 0.619664C14.1893 0.619664 13.307 0.860537 12.7923 1.01108C11.91 1.25196 11.3953 1.37239 10.9542 1.37239C10.5131 1.37239 9.92486 1.25196 9.04257 0.980974C8.5279 0.830428 7.71913 0.619664 7.42503 0.619664C7.13094 0.619664 6.32217 0.830428 5.8075 0.980974C4.92521 1.22185 4.41054 1.37239 3.89587 1.37239C3.30767 1.37239 2.71948 1.19174 2.05776 0.980974C1.46956 0.830428 0.807845 0.619664 0.366699 0.619664C0.366699 0.649773 0.366699 0.137918 0.366699 0.168027C1.10194 0.168027 1.91071 0.4089 2.64595 0.619664C3.01357 0.740101 3.67529 0.920756 3.89587 0.920756C4.11644 0.920756 4.77816 0.740101 5.14578 0.619664C5.95455 0.378791 6.76331 0.168027 7.35151 0.168027C7.86618 0.168027 8.5279 0.348682 9.55724 0.619664C9.99838 0.740101 10.6601 0.920756 10.8807 0.920756C11.0277 0.920756 11.6159 0.740101 12.0571 0.619664C13.0129 0.378791 13.8216 0.168027 14.4834 0.168027" fill="#DBFF00"/>
<path d="M28.6 0.619664C28.3059 0.619664 27.4236 0.860537 26.909 1.01108C26.0267 1.25196 25.512 1.37239 25.0709 1.37239C24.6297 1.37239 24.0415 1.25196 23.1592 0.980974C22.6446 0.830428 21.8358 0.619664 21.5417 0.619664C21.2476 0.619664 20.4388 0.830428 19.9242 0.980974C19.0419 1.22185 18.5272 1.37239 18.0125 1.37239C17.4243 1.37239 16.8361 1.19174 16.1744 0.980974C15.5862 0.830428 14.9245 0.619664 14.4834 0.619664C14.4834 0.649773 14.4834 0.137918 14.4834 0.168027C15.2186 0.168027 16.0274 0.4089 16.7626 0.619664C17.1302 0.740101 17.792 0.920756 18.0125 0.920756C18.2331 0.920756 18.8948 0.740101 19.2624 0.619664C20.0712 0.378791 20.88 0.168027 21.4682 0.168027C21.9828 0.168027 22.6446 0.348682 23.6739 0.619664C24.1151 0.740101 24.7768 0.920756 24.9973 0.920756C25.1444 0.920756 25.7326 0.740101 26.1737 0.619664C27.1295 0.378791 27.9383 0.168027 28.6 0.168027" fill="#DBFF00"/>
<path d="M42.7167 0.619664C42.4226 0.619664 41.5403 0.860537 41.0256 1.01108C40.1434 1.25196 39.6287 1.37239 39.1875 1.37239C38.7464 1.37239 38.1582 1.25196 37.2759 0.980974C36.7612 0.830428 35.9525 0.619664 35.6584 0.619664C35.3643 0.619664 34.5555 0.830428 34.0408 0.980974C33.1585 1.22185 32.6439 1.37239 32.1292 1.37239C31.541 1.37239 30.9528 1.19174 30.2911 0.980974C29.7029 0.830428 29.0412 0.619664 28.6 0.619664C28.6 0.649773 28.6 0.137918 28.6 0.168027C29.3353 0.168027 30.144 0.4089 30.8793 0.619664C31.2469 0.740101 31.9086 0.920756 32.1292 0.920756C32.3498 0.920756 33.0115 0.740101 33.3791 0.619664C34.1879 0.378791 34.9967 0.168027 35.5848 0.168027C36.0995 0.168027 36.7612 0.348682 37.7906 0.619664C38.2317 0.740101 38.8934 0.920756 39.114 0.920756C39.2611 0.920756 39.8493 0.740101 40.2904 0.619664C41.2462 0.378791 42.055 0.168027 42.7167 0.168027" fill="#DBFF00"/>
<path d="M56.8334 0.619664C56.5393 0.619664 55.657 0.860537 55.1423 1.01108C54.26 1.25196 53.7454 1.37239 53.3042 1.37239C52.8631 1.37239 52.2749 1.25196 51.3926 0.980974C50.8779 0.830428 50.0691 0.619664 49.775 0.619664C49.4809 0.619664 48.6722 0.830428 48.1575 0.980974C47.2752 1.22185 46.7605 1.37239 46.2459 1.37239C45.6577 1.37239 45.0695 1.19174 44.4078 0.980974C43.8196 0.830428 43.1579 0.619664 42.7167 0.619664C42.7167 0.649773 42.7167 0.137918 42.7167 0.168027C43.4519 0.168027 44.2607 0.4089 44.996 0.619664C45.3636 0.740101 46.0253 0.920756 46.2459 0.920756C46.4664 0.920756 47.1282 0.740101 47.4958 0.619664C48.3046 0.378791 49.1133 0.168027 49.7015 0.168027C50.2162 0.168027 50.8779 0.348682 51.9072 0.619664C52.3484 0.740101 53.0101 0.920756 53.2307 0.920756C53.3777 0.920756 53.9659 0.740101 54.4071 0.619664C55.3629 0.378791 56.1717 0.168027 56.8334 0.168027" fill="#DBFF00"/>
</svg>
