<svg width="56" height="3" viewBox="0 0 56 3" fill="none" xmlns="http://www.w3.org/2000/svg">
<path d="M14 1.12687C13.7083 1.12687 12.8333 1.72623 12.3229 2.10083C11.4479 2.7002 10.9375 2.99988 10.5 2.99988C10.0625 2.99988 9.47917 2.7002 8.60417 2.02591C8.09375 1.65131 7.29167 1.12687 7 1.12687C6.70833 1.12687 5.90625 1.65131 5.39583 2.02591C4.52083 2.62528 4.01042 2.99988 3.5 2.99988C2.91667 2.99988 2.33333 2.55036 1.67708 2.02591C1.09375 1.65131 0.4375 1.12687 0 1.12687C0 1.20179 0 -0.0718605 0 0.00305998C0.729167 0.00305998 1.53125 0.602424 2.26042 1.12687C2.625 1.42655 3.28125 1.87607 3.5 1.87607C3.71875 1.87607 4.375 1.42655 4.73958 1.12687C5.54167 0.527503 6.34375 0.00305998 6.92708 0.00305998C7.4375 0.00305998 8.09375 0.452583 9.11458 1.12687C9.55208 1.42655 10.2083 1.87607 10.4271 1.87607C10.5729 1.87607 11.1562 1.42655 11.5937 1.12687C12.5417 0.527503 13.3438 0.00305998 14 0.00305998" fill="#DBFF00"/>
<path d="M28 1.12687C27.7083 1.12687 26.8333 1.72623 26.3229 2.10083C25.4479 2.7002 24.9375 2.99988 24.5 2.99988C24.0625 2.99988 23.4792 2.7002 22.6042 2.02591C22.0938 1.65131 21.2917 1.12687 21 1.12687C20.7083 1.12687 19.9062 1.65131 19.3958 2.02591C18.5208 2.62528 18.0104 2.99988 17.5 2.99988C16.9167 2.99988 16.3333 2.55036 15.6771 2.02591C15.0937 1.65131 14.4375 1.12687 14 1.12687C14 1.20179 14 -0.0718605 14 0.00305998C14.7292 0.00305998 15.5312 0.602424 16.2604 1.12687C16.625 1.42655 17.2812 1.87607 17.5 1.87607C17.7188 1.87607 18.375 1.42655 18.7396 1.12687C19.5417 0.527503 20.3437 0.00305998 20.9271 0.00305998C21.4375 0.00305998 22.0938 0.452583 23.1146 1.12687C23.5521 1.42655 24.2083 1.87607 24.4271 1.87607C24.5729 1.87607 25.1562 1.42655 25.5937 1.12687C26.5417 0.527503 27.3438 0.00305998 28 0.00305998" fill="#DBFF00"/>
<path d="M42 1.12687C41.7083 1.12687 40.8333 1.72623 40.3229 2.10083C39.4479 2.7002 38.9375 2.99988 38.5 2.99988C38.0625 2.99988 37.4792 2.7002 36.6042 2.02591C36.0938 1.65131 35.2917 1.12687 35 1.12687C34.7083 1.12687 33.9062 1.65131 33.3958 2.02591C32.5208 2.62528 32.0104 2.99988 31.5 2.99988C30.9167 2.99988 30.3333 2.55036 29.6771 2.02591C29.0937 1.65131 28.4375 1.12687 28 1.12687C28 1.20179 28 -0.0718605 28 0.00305998C28.7292 0.00305998 29.5312 0.602424 30.2604 1.12687C30.625 1.42655 31.2812 1.87607 31.5 1.87607C31.7188 1.87607 32.375 1.42655 32.7396 1.12687C33.5417 0.527503 34.3437 0.00305998 34.9271 0.00305998C35.4375 0.00305998 36.0938 0.452583 37.1146 1.12687C37.5521 1.42655 38.2083 1.87607 38.4271 1.87607C38.5729 1.87607 39.1562 1.42655 39.5937 1.12687C40.5417 0.527503 41.3438 0.00305998 42 0.00305998" fill="#DBFF00"/>
<path d="M56 1.12687C55.7083 1.12687 54.8333 1.72623 54.3229 2.10083C53.4479 2.7002 52.9375 2.99988 52.5 2.99988C52.0625 2.99988 51.4792 2.7002 50.6042 2.02591C50.0938 1.65131 49.2917 1.12687 49 1.12687C48.7083 1.12687 47.9062 1.65131 47.3958 2.02591C46.5208 2.62528 46.0104 2.99988 45.5 2.99988C44.9167 2.99988 44.3333 2.55036 43.6771 2.02591C43.0937 1.65131 42.4375 1.12687 42 1.12687C42 1.20179 42 -0.0718605 42 0.00305998C42.7292 0.00305998 43.5312 0.602424 44.2604 1.12687C44.625 1.42655 45.2812 1.87607 45.5 1.87607C45.7188 1.87607 46.375 1.42655 46.7396 1.12687C47.5417 0.527503 48.3437 0.00305998 48.9271 0.00305998C49.4375 0.00305998 50.0938 0.452583 51.1146 1.12687C51.5521 1.42655 52.2083 1.87607 52.4271 1.87607C52.5729 1.87607 53.1562 1.42655 53.5937 1.12687C54.5417 0.527503 55.3438 0.00305998 56 0.00305998" fill="#DBFF00"/>
</svg>
