<svg width="950" height="696" viewBox="0 0 950 696" fill="none" xmlns="http://www.w3.org/2000/svg">
<path d="M155 284C11.0001 224.8 -6.33321 91.3333 3.00012 32L948 0V677L919 687C831.8 688.6 782 616.333 768 580C740.8 516.8 677.333 523 649 534C594.6 556.4 542.333 554 523 550C428.6 532.4 421 465.333 429 434C448.2 405.2 430.333 358 419 338C390.2 288.4 317.667 290.667 285 298C238.6 298 179 288.667 155 284Z" fill="#92E3A9" fill-opacity="0.12"/>
<path d="M65.0001 230C7.40012 154.8 13.6668 63.3333 24.0001 27L231 8L647 186C645.4 487.6 513.667 432.333 448 367C411.2 306.2 320 302.333 279 308C173.4 315.2 92.3335 259 65.0001 230Z" fill="#92E3A9" fill-opacity="0.25"/>
<path d="M437 414C449 378 432 327.667 422 307L428 230L950 295L938 689C924.4 693 905.667 695.333 898 696C813.2 688.8 775.333 629.667 767 601C758.2 578.6 749.333 567 746 564C715.6 525.6 648.667 537.333 619 548C529.4 564.8 474.333 537 458 521C421.2 490.6 428.667 437 437 414Z" fill="#92E3A9" fill-opacity="0.21"/>
</svg>
