<svg width="18" height="1344" viewBox="0 0 18 1344" fill="none" xmlns="http://www.w3.org/2000/svg">
<circle cx="6" cy="1338" r="6" fill="#DEF7E4"/>
<path fill-rule="evenodd" clip-rule="evenodd" d="M14.975 1.86335C15.8863 1.86335 16.625 1.56892 16.625 1.20572C16.625 0.842524 15.8863 0.548096 14.975 0.548096C14.0637 0.548096 13.325 0.842524 13.325 1.20572C13.325 1.56892 14.0637 1.86335 14.975 1.86335ZM14.975 1.64414C15.5825 1.64414 16.075 1.44785 16.075 1.20572C16.075 0.96359 15.5825 0.767304 14.975 0.767304C14.3675 0.767304 13.875 0.96359 13.875 1.20572C13.875 1.44785 14.3675 1.64414 14.975 1.64414Z" fill="#0F0F0F"/>
<path d="M16.625 0.438477C16.4731 0.438477 16.35 0.487651 16.35 0.548309C16.35 0.608967 16.4731 0.658141 16.625 0.658141C16.7769 0.658141 16.9 0.608967 16.9 0.548309C16.9 0.487651 16.7769 0.438477 16.625 0.438477Z" fill="#0F0F0F"/>
<path fill-rule="evenodd" clip-rule="evenodd" d="M12.1298 0.35907C11.95 0.499744 11.95 0.683896 11.95 1.0522V1.35909C11.95 1.7274 11.95 1.91155 12.1298 2.05222C12.288 2.17596 12.5404 2.27657 12.8509 2.33961C13.2039 2.41129 13.6659 2.41129 14.59 2.41129H15.36C16.2841 2.41129 16.7461 2.41129 17.0991 2.33961C17.4095 2.27657 17.662 2.17596 17.8201 2.05222C18 1.91155 18 1.7274 18 1.35909V1.0522C18 0.683896 18 0.499744 17.8201 0.35907C17.662 0.235329 17.4095 0.134725 17.0991 0.0716768C16.7461 0 16.2841 0 15.36 0H14.59C13.6659 0 13.2039 0 12.8509 0.0716768C12.5404 0.134725 12.288 0.235329 12.1298 0.35907ZM15.36 0.219208H14.59C14.1189 0.219208 13.7986 0.219379 13.5511 0.22744C13.3099 0.235292 13.1866 0.249524 13.1006 0.266993C12.8936 0.309026 12.7253 0.376095 12.6199 0.458588C12.576 0.492873 12.5403 0.542019 12.5206 0.638124C12.5004 0.736787 12.5 0.864431 12.5 1.0522V1.35909C12.5 1.54687 12.5004 1.6745 12.5206 1.77317C12.5403 1.86928 12.576 1.91842 12.6199 1.95271C12.7253 2.0352 12.8936 2.10226 13.1006 2.1443C13.1866 2.16177 13.3099 2.17601 13.5511 2.18385C13.7986 2.19191 14.1189 2.19208 14.59 2.19208H15.36C15.8311 2.19208 16.1514 2.19191 16.3989 2.18385C16.6401 2.17601 16.7634 2.16177 16.8494 2.1443C17.0564 2.10226 17.2246 2.0352 17.3301 1.95271C17.3739 1.91842 17.4096 1.86928 17.4293 1.77317C17.4495 1.6745 17.45 1.54687 17.45 1.35909V1.0522C17.45 0.864431 17.4495 0.736787 17.4293 0.638124C17.4096 0.542019 17.3739 0.492873 17.3301 0.458588C17.2246 0.376095 17.0564 0.309026 16.8494 0.266993C16.7634 0.249524 16.6401 0.235292 16.3989 0.22744C16.1514 0.219379 15.8311 0.219208 15.36 0.219208Z" fill="#0F0F0F"/>
</svg>
