<svg width="19" height="1344" viewBox="0 0 19 1344" fill="none" xmlns="http://www.w3.org/2000/svg">
<circle cx="6" cy="1338" r="6" fill="#DEF7E4"/>
<path fill-rule="evenodd" clip-rule="evenodd" d="M17.6731 0.577264C17.6123 0.593339 17.5782 0.618256 17.582 0.644297C17.5843 0.667607 17.5862 0.690916 17.5862 0.714546C17.5862 1.46944 16.017 2.25054 13.3911 2.25054C12.8776 2.25054 12.3718 2.21598 11.8963 2.14926C12.4696 2.11711 13.0157 2.03191 13.4717 1.90186C13.5472 1.88016 13.5752 1.84512 13.5424 1.81361C13.5097 1.7821 13.4224 1.76072 13.3232 1.75992C12.8805 1.75687 12.4795 1.6707 12.2461 1.53615C12.406 1.53454 12.5782 1.52602 12.7073 1.51333C12.8117 1.50304 12.8819 1.47008 12.8786 1.43343C12.8748 1.39662 12.7979 1.36543 12.6916 1.35756C12.2204 1.323 11.8736 1.19134 11.7564 1.01049C11.8911 1.01965 12.0183 1.02255 12.0885 1.02319C12.192 1.02705 12.2873 1.00261 12.3215 0.969019C12.3552 0.935582 12.3206 0.898447 12.2356 0.877711C11.9077 0.797655 11.5566 0.648317 11.5566 0.47004C11.5566 0.426156 11.5727 0.382753 11.6036 0.340796C12.4235 0.649924 13.5424 0.836556 14.7287 0.858259C14.8084 0.859705 14.8744 0.849096 14.9223 0.830127C14.9702 0.811159 14.9892 0.785438 14.974 0.761003C14.9503 0.724513 14.9384 0.686737 14.9384 0.648478C14.9384 0.379538 15.5311 0.160754 16.2595 0.160754C16.6258 0.160754 16.9665 0.214605 17.218 0.312666C17.274 0.334528 17.3622 0.344655 17.4458 0.338546C17.5663 0.329865 17.6849 0.318934 17.8017 0.305592C17.7324 0.329383 17.656 0.350603 17.5729 0.368768C17.4795 0.389183 17.4405 0.428567 17.4785 0.463933C17.5165 0.499298 17.6237 0.520678 17.7319 0.516017C17.7936 0.513284 17.8548 0.510069 17.9155 0.506051C17.8387 0.531288 17.758 0.55508 17.6731 0.577264ZM18.7725 0.293054C18.7023 0.266528 18.5893 0.259136 18.4935 0.274246C18.4764 0.276979 18.4593 0.279711 18.4418 0.282444C18.5134 0.239361 18.5718 0.193226 18.614 0.144839C18.6425 0.112689 18.6088 0.0779657 18.5296 0.0577118C18.4498 0.0376172 18.3426 0.0360103 18.2586 0.0541748C18.0138 0.107385 17.7504 0.146446 17.4752 0.171042C17.1463 0.0617298 16.7107 0 16.2595 0C15.2697 0 14.4639 0.290963 14.4639 0.648478C14.4639 0.661981 14.4649 0.675484 14.4673 0.688826C13.3968 0.641886 12.4074 0.443999 11.7189 0.135837C11.6705 0.114135 11.5922 0.103043 11.512 0.10433C11.4313 0.10642 11.3592 0.122173 11.3208 0.146286C11.1647 0.244344 11.0821 0.356389 11.0821 0.470042C11.0821 0.593339 11.2026 0.704901 11.3772 0.79846C11.2956 0.811319 11.2387 0.83913 11.2387 0.871602V0.878996C11.2387 1.07801 11.4479 1.25178 11.7995 1.36929C11.7616 1.37347 11.7269 1.38103 11.699 1.39115C11.6712 1.4014 11.6518 1.41391 11.6425 1.42746C11.6333 1.44101 11.6346 1.45514 11.6463 1.46848C11.8176 1.66347 12.2252 1.81313 12.732 1.88097C12.2157 1.97999 11.6031 2.01921 11.0327 1.99591C10.9212 1.99028 10.8206 2.01278 10.7822 2.04719C10.7433 2.08175 10.7793 2.12097 10.8695 2.14187C11.6245 2.31805 12.4966 2.41129 13.3911 2.41129C16.3141 2.41129 18.0607 1.54853 18.0607 0.714546C18.0607 0.702329 18.0603 0.690272 18.0593 0.678217C18.3473 0.596875 18.595 0.499781 18.7977 0.389183C18.8532 0.358802 18.8432 0.319577 18.7725 0.293054Z" fill="black"/>
</svg>
