<svg width="11" height="5" viewBox="0 0 11 5" fill="none" xmlns="http://www.w3.org/2000/svg">
<path d="M4.05639 0.948312C4.69499 0.491723 5.01428 0.263428 5.49167 0.263428C5.96907 0.263428 6.28836 0.491721 6.92693 0.94831L7.09215 1.06643C7.27365 1.19618 7.36435 1.26106 7.50587 1.30386C7.64734 1.34667 7.82349 1.36256 8.1759 1.39433L8.49675 1.42327C9.7368 1.5351 10.3569 1.59101 10.5044 1.78008C10.6519 1.96914 10.2292 2.16616 9.38378 2.56017L9.16508 2.6621C8.92484 2.77407 8.8047 2.83005 8.75065 2.89931C8.69666 2.96858 8.71481 3.04327 8.75111 3.19267L8.78418 3.32866C8.91199 3.85437 8.97591 4.11722 8.58972 4.23407C8.20348 4.35091 7.62293 4.24437 6.46184 4.03132L6.16146 3.97618C5.83153 3.91563 5.66657 3.88535 5.49167 3.88535C5.31678 3.88535 5.15181 3.91563 4.82189 3.97618L4.52151 4.03132C3.3604 4.24437 2.77986 4.35091 2.39365 4.23407C2.00744 4.11722 2.07135 3.85437 2.19917 3.32866L2.23223 3.19267C2.26856 3.04327 2.28672 2.96858 2.23267 2.89931C2.17864 2.83005 2.05852 2.77407 1.81828 2.6621L1.59956 2.56017C0.754151 2.16616 0.331443 1.96914 0.478962 1.78008C0.626481 1.59101 1.24652 1.5351 2.48661 1.42327L2.80744 1.39433C3.15983 1.36256 3.33603 1.34667 3.4775 1.30386C3.61897 1.26106 3.70971 1.19618 3.89118 1.06643L4.05639 0.948312Z" fill="#FFDF08"/>
</svg>
