<svg width="11" height="5" viewBox="0 0 11 5" fill="none" xmlns="http://www.w3.org/2000/svg">
<path d="M3.62304 0.948312C4.26164 0.491723 4.58093 0.263428 5.05832 0.263428C5.53572 0.263428 5.85501 0.491721 6.49358 0.94831L6.6588 1.06643C6.8403 1.19618 6.931 1.26106 7.07252 1.30386C7.21399 1.34667 7.39014 1.36256 7.74255 1.39433L8.06341 1.42327C9.30345 1.5351 9.92353 1.59101 10.071 1.78008C10.2186 1.96914 9.79587 2.16616 8.95043 2.56017L8.73173 2.6621C8.49149 2.77407 8.37135 2.83005 8.3173 2.89931C8.26331 2.96858 8.28146 3.04327 8.31776 3.19267L8.35083 3.32866C8.47864 3.85437 8.54256 4.11722 8.15637 4.23407C7.77013 4.35091 7.18958 4.24437 6.02849 4.03132L5.72811 3.97618C5.39818 3.91563 5.23322 3.88535 5.05832 3.88535C4.88343 3.88535 4.71847 3.91563 4.38854 3.97618L4.08816 4.03132C2.92705 4.24437 2.34651 4.35091 1.9603 4.23407C1.57409 4.11722 1.638 3.85437 1.76582 3.32866L1.79888 3.19267C1.83521 3.04327 1.85337 2.96858 1.79932 2.89931C1.74529 2.83005 1.62517 2.77407 1.38493 2.6621L1.16621 2.56017C0.320802 2.16616 -0.101906 1.96914 0.0456128 1.78008C0.193132 1.59101 0.813175 1.5351 2.05326 1.42327L2.37409 1.39433C2.72648 1.36256 2.90268 1.34667 3.04415 1.30386C3.18562 1.26106 3.27636 1.19618 3.45783 1.06643L3.62304 0.948312Z" fill="#FFDF08"/>
</svg>
