<svg width="11" height="5" viewBox="0 0 11 5" fill="none" xmlns="http://www.w3.org/2000/svg">
<path d="M4.53137 0.948312C5.16997 0.491723 5.48925 0.263428 5.96665 0.263428C6.44404 0.263428 6.76333 0.491721 7.40191 0.94831L7.56712 1.06643C7.74862 1.19618 7.83932 1.26106 7.98084 1.30386C8.12231 1.34667 8.29847 1.36256 8.65088 1.39433L8.97173 1.42327C10.2118 1.5351 10.8319 1.59101 10.9794 1.78008C11.1269 1.96914 10.7042 2.16616 9.85876 2.56017L9.64005 2.6621C9.39982 2.77407 9.27967 2.83005 9.22563 2.89931C9.17163 2.96858 9.18978 3.04327 9.22608 3.19267L9.25916 3.32866C9.38696 3.85437 9.45089 4.11722 9.0647 4.23407C8.67846 4.35091 8.09791 4.24437 6.93682 4.03132L6.63643 3.97618C6.30651 3.91563 6.14154 3.88535 5.96665 3.88535C5.79175 3.88535 5.62679 3.91563 5.29686 3.97618L4.99648 4.03132C3.83538 4.24437 3.25483 4.35091 2.86862 4.23407C2.48242 4.11722 2.54633 3.85437 2.67414 3.32866L2.70721 3.19267C2.74353 3.04327 2.76169 2.96858 2.70765 2.89931C2.65361 2.83005 2.5335 2.77407 2.29325 2.6621L2.07454 2.56017C1.22913 2.16616 0.806419 1.96914 0.953938 1.78008C1.10146 1.59101 1.7215 1.5351 2.96159 1.42327L3.28241 1.39433C3.63481 1.36256 3.811 1.34667 3.95248 1.30386C4.09395 1.26106 4.18469 1.19618 4.36616 1.06643L4.53137 0.948312Z" fill="#E8E8E8"/>
</svg>
