<svg width="11" height="5" viewBox="0 0 11 5" fill="none" xmlns="http://www.w3.org/2000/svg">
<path d="M4.41473 0.948312C5.05333 0.491723 5.37262 0.263428 5.85001 0.263428C6.32741 0.263428 6.64669 0.491721 7.28527 0.94831L7.45049 1.06643C7.63199 1.19618 7.72268 1.26106 7.8642 1.30386C8.00567 1.34667 8.18183 1.36256 8.53424 1.39433L8.85509 1.42327C10.0951 1.5351 10.7152 1.59101 10.8627 1.78008C11.0103 1.96914 10.5876 2.16616 9.74212 2.56017L9.52341 2.6621C9.28318 2.77407 9.16304 2.83005 9.10899 2.89931C9.05499 2.96858 9.07314 3.04327 9.10944 3.19267L9.14252 3.32866C9.27032 3.85437 9.33425 4.11722 8.94806 4.23407C8.56182 4.35091 7.98127 4.24437 6.82018 4.03132L6.51979 3.97618C6.18987 3.91563 6.02491 3.88535 5.85001 3.88535C5.67512 3.88535 5.51015 3.91563 5.18023 3.97618L4.87984 4.03132C3.71874 4.24437 3.13819 4.35091 2.75199 4.23407C2.36578 4.11722 2.42969 3.85437 2.5575 3.32866L2.59057 3.19267C2.62689 3.04327 2.64505 2.96858 2.59101 2.89931C2.53697 2.83005 2.41686 2.77407 2.17662 2.6621L1.9579 2.56017C1.11249 2.16616 0.689781 1.96914 0.8373 1.78008C0.984819 1.59101 1.60486 1.5351 2.84495 1.42327L3.16578 1.39433C3.51817 1.36256 3.69436 1.34667 3.83584 1.30386C3.97731 1.26106 4.06805 1.19618 4.24952 1.06643L4.41473 0.948312Z" fill="#E8E8E8"/>
</svg>
