<svg width="11" height="5" viewBox="0 0 11 5" fill="none" xmlns="http://www.w3.org/2000/svg">
<path d="M3.98138 0.948312C4.61998 0.491723 4.93927 0.263428 5.41666 0.263428C5.89406 0.263428 6.21334 0.491721 6.85192 0.94831L7.01714 1.06643C7.19864 1.19618 7.28934 1.26106 7.43085 1.30386C7.57232 1.34667 7.74848 1.36256 8.10089 1.39433L8.42174 1.42327C9.66179 1.5351 10.2819 1.59101 10.4294 1.78008C10.5769 1.96914 10.1542 2.16616 9.30877 2.56017L9.09007 2.6621C8.84983 2.77407 8.72969 2.83005 8.67564 2.89931C8.62164 2.96858 8.63979 3.04327 8.67609 3.19267L8.70917 3.32866C8.83697 3.85437 8.9009 4.11722 8.51471 4.23407C8.12847 4.35091 7.54792 4.24437 6.38683 4.03132L6.08645 3.97618C5.75652 3.91563 5.59156 3.88535 5.41666 3.88535C5.24177 3.88535 5.0768 3.91563 4.74688 3.97618L4.44649 4.03132C3.28539 4.24437 2.70484 4.35091 2.31864 4.23407C1.93243 4.11722 1.99634 3.85437 2.12415 3.32866L2.15722 3.19267C2.19354 3.04327 2.2117 2.96858 2.15766 2.89931C2.10362 2.83005 1.98351 2.77407 1.74327 2.6621L1.52455 2.56017C0.679139 2.16616 0.256431 1.96914 0.40395 1.78008C0.551469 1.59101 1.17151 1.5351 2.4116 1.42327L2.73243 1.39433C3.08482 1.36256 3.26101 1.34667 3.40249 1.30386C3.54396 1.26106 3.6347 1.19618 3.81617 1.06643L3.98138 0.948312Z" fill="#E8E8E8"/>
</svg>
