<svg width="900" height="691" viewBox="0 0 900 691" fill="none" xmlns="http://www.w3.org/2000/svg">
<path d="M44.4999 199C3.69986 150.2 -1.83347 72.6667 0.499861 40L900 0.5V684C882 693.2 859.833 691.167 851 689C797 670.6 762.167 620.333 751.5 597.5C734.7 555.9 706.5 533.833 694.5 528C671.3 514.8 637.5 522.5 623.5 528C614.7 532 598.5 538 591.5 540.5C513.5 562.5 464.333 536.333 449.5 520.5C421.9 497.3 424 453.167 428.5 434C437.7 384 421.333 345.5 412 332.5C377.6 275.3 298.667 270.667 263.5 275.5C223.1 279.9 178 273.667 160.5 270C102.9 261.6 59.1665 219.167 44.4999 199Z" fill="url(#paint0_linear_2_10)"/>
<defs>
<linearGradient id="paint0_linear_2_10" x1="400" y1="1.05827e-05" x2="824" y2="776" gradientUnits="userSpaceOnUse">
<stop stop-color="#B3F0C4"/>
<stop offset="0.536" stop-color="#9EECB4"/>
<stop offset="1" stop-color="#92E3A9"/>
</linearGradient>
</defs>
</svg>
