<svg width="11" height="5" viewBox="0 0 11 5" fill="none" xmlns="http://www.w3.org/2000/svg">
<path d="M3.73971 0.948312C4.37831 0.491723 4.6976 0.263428 5.17499 0.263428C5.65239 0.263428 5.97168 0.491721 6.61025 0.94831L6.77547 1.06643C6.95697 1.19618 7.04767 1.26106 7.18919 1.30386C7.33066 1.34667 7.50681 1.36256 7.85922 1.39433L8.18007 1.42327C9.42012 1.5351 10.0402 1.59101 10.1877 1.78008C10.3352 1.96914 9.91254 2.16616 9.0671 2.56017L8.8484 2.6621C8.60816 2.77407 8.48802 2.83005 8.43397 2.89931C8.37998 2.96858 8.39813 3.04327 8.43443 3.19267L8.4675 3.32866C8.5953 3.85437 8.65923 4.11722 8.27304 4.23407C7.8868 4.35091 7.30625 4.24437 6.14516 4.03132L5.84478 3.97618C5.51485 3.91563 5.34989 3.88535 5.17499 3.88535C5.0001 3.88535 4.83513 3.91563 4.50521 3.97618L4.20483 4.03132C3.04372 4.24437 2.46317 4.35091 2.07697 4.23407C1.69076 4.11722 1.75467 3.85437 1.88249 3.32866L1.91555 3.19267C1.95187 3.04327 1.97003 2.96858 1.91599 2.89931C1.86196 2.83005 1.74184 2.77407 1.5016 2.6621L1.28288 2.56017C0.43747 2.16616 0.0147625 1.96914 0.162281 1.78008C0.3098 1.59101 0.929844 1.5351 2.16993 1.42327L2.49076 1.39433C2.84315 1.36256 3.01934 1.34667 3.16082 1.30386C3.30229 1.26106 3.39303 1.19618 3.5745 1.06643L3.73971 0.948312Z" fill="#FFDF08"/>
</svg>
