<svg width="11" height="5" viewBox="0 0 11 5" fill="none" xmlns="http://www.w3.org/2000/svg">
<path d="M3.85638 0.948312C4.49498 0.491723 4.81427 0.263428 5.29166 0.263428C5.76906 0.263428 6.08834 0.491721 6.72692 0.94831L6.89214 1.06643C7.07364 1.19618 7.16434 1.26106 7.30585 1.30386C7.44732 1.34667 7.62348 1.36256 7.97589 1.39433L8.29674 1.42327C9.53679 1.5351 10.1569 1.59101 10.3044 1.78008C10.4519 1.96914 10.0292 2.16616 9.18377 2.56017L8.96507 2.6621C8.72483 2.77407 8.60469 2.83005 8.55064 2.89931C8.49664 2.96858 8.51479 3.04327 8.55109 3.19267L8.58417 3.32866C8.71197 3.85437 8.7759 4.11722 8.38971 4.23407C8.00347 4.35091 7.42292 4.24437 6.26183 4.03132L5.96145 3.97618C5.63152 3.91563 5.46656 3.88535 5.29166 3.88535C5.11677 3.88535 4.9518 3.91563 4.62188 3.97618L4.32149 4.03132C3.16039 4.24437 2.57984 4.35091 2.19364 4.23407C1.80743 4.11722 1.87134 3.85437 1.99915 3.32866L2.03222 3.19267C2.06854 3.04327 2.0867 2.96858 2.03266 2.89931C1.97862 2.83005 1.85851 2.77407 1.61827 2.6621L1.39955 2.56017C0.554139 2.16616 0.131431 1.96914 0.27895 1.78008C0.426469 1.59101 1.04651 1.5351 2.2866 1.42327L2.60743 1.39433C2.95982 1.36256 3.13601 1.34667 3.27749 1.30386C3.41896 1.26106 3.5097 1.19618 3.69117 1.06643L3.85638 0.948312Z" fill="#FFDF08"/>
</svg>
