<svg width="11" height="5" viewBox="0 0 11 5" fill="none" xmlns="http://www.w3.org/2000/svg">
<path d="M4.09805 0.948312C4.73665 0.491723 5.05593 0.263428 5.53333 0.263428C6.01072 0.263428 6.33001 0.491721 6.96859 0.94831L7.1338 1.06643C7.3153 1.19618 7.406 1.26106 7.54752 1.30386C7.68899 1.34667 7.86515 1.36256 8.21756 1.39433L8.53841 1.42327C9.77846 1.5351 10.3985 1.59101 10.5461 1.78008C10.6936 1.96914 10.2709 2.16616 9.42544 2.56017L9.20673 2.6621C8.9665 2.77407 8.84636 2.83005 8.79231 2.89931C8.73831 2.96858 8.75646 3.04327 8.79276 3.19267L8.82584 3.32866C8.95364 3.85437 9.01757 4.11722 8.63138 4.23407C8.24514 4.35091 7.66459 4.24437 6.5035 4.03132L6.20311 3.97618C5.87319 3.91563 5.70822 3.88535 5.53333 3.88535C5.35843 3.88535 5.19347 3.91563 4.86355 3.97618L4.56316 4.03132C3.40206 4.24437 2.82151 4.35091 2.43531 4.23407C2.0491 4.11722 2.11301 3.85437 2.24082 3.32866L2.27389 3.19267C2.31021 3.04327 2.32837 2.96858 2.27433 2.89931C2.22029 2.83005 2.10018 2.77407 1.85994 2.6621L1.64122 2.56017C0.795808 2.16616 0.3731 1.96914 0.520619 1.78008C0.668138 1.59101 1.28818 1.5351 2.52827 1.42327L2.84909 1.39433C3.20149 1.36256 3.37768 1.34667 3.51916 1.30386C3.66063 1.26106 3.75137 1.19618 3.93284 1.06643L4.09805 0.948312Z" fill="#E8E8E8"/>
</svg>
