<svg width="11" height="5" viewBox="0 0 11 5" fill="none" xmlns="http://www.w3.org/2000/svg">
<path d="M4.28973 0.948312C4.92833 0.491723 5.24762 0.263428 5.72501 0.263428C6.20241 0.263428 6.52169 0.491721 7.16027 0.94831L7.32549 1.06643C7.50699 1.19618 7.59768 1.26106 7.7392 1.30386C7.88067 1.34667 8.05683 1.36256 8.40924 1.39433L8.73009 1.42327C9.97014 1.5351 10.5902 1.59101 10.7377 1.78008C10.8853 1.96914 10.4626 2.16616 9.61712 2.56017L9.39841 2.6621C9.15818 2.77407 9.03804 2.83005 8.98399 2.89931C8.92999 2.96858 8.94814 3.04327 8.98444 3.19267L9.01752 3.32866C9.14532 3.85437 9.20925 4.11722 8.82306 4.23407C8.43682 4.35091 7.85627 4.24437 6.69518 4.03132L6.39479 3.97618C6.06487 3.91563 5.89991 3.88535 5.72501 3.88535C5.55012 3.88535 5.38515 3.91563 5.05523 3.97618L4.75484 4.03132C3.59374 4.24437 3.01319 4.35091 2.62699 4.23407C2.24078 4.11722 2.30469 3.85437 2.4325 3.32866L2.46557 3.19267C2.50189 3.04327 2.52005 2.96858 2.46601 2.89931C2.41197 2.83005 2.29186 2.77407 2.05162 2.6621L1.8329 2.56017C0.987489 2.16616 0.564781 1.96914 0.7123 1.78008C0.859819 1.59101 1.47986 1.5351 2.71995 1.42327L3.04078 1.39433C3.39317 1.36256 3.56936 1.34667 3.71084 1.30386C3.85231 1.26106 3.94305 1.19618 4.12452 1.06643L4.28973 0.948312Z" fill="#FFDF08"/>
</svg>
