<svg width="11" height="5" viewBox="0 0 11 5" fill="none" xmlns="http://www.w3.org/2000/svg">
<path d="M4.17303 0.948312C4.81163 0.491723 5.13092 0.263428 5.60831 0.263428C6.08571 0.263428 6.40499 0.491721 7.04357 0.94831L7.20879 1.06643C7.39029 1.19618 7.48099 1.26106 7.62251 1.30386C7.76397 1.34667 7.94013 1.36256 8.29254 1.39433L8.61339 1.42327C9.85344 1.5351 10.4735 1.59101 10.621 1.78008C10.7686 1.96914 10.3459 2.16616 9.50042 2.56017L9.28172 2.6621C9.04148 2.77407 8.92134 2.83005 8.86729 2.89931C8.81329 2.96858 8.83144 3.04327 8.86774 3.19267L8.90082 3.32866C9.02862 3.85437 9.09255 4.11722 8.70636 4.23407C8.32012 4.35091 7.73957 4.24437 6.57848 4.03132L6.2781 3.97618C5.94817 3.91563 5.78321 3.88535 5.60831 3.88535C5.43342 3.88535 5.26845 3.91563 4.93853 3.97618L4.63814 4.03132C3.47704 4.24437 2.89649 4.35091 2.51029 4.23407C2.12408 4.11722 2.18799 3.85437 2.3158 3.32866L2.34887 3.19267C2.38519 3.04327 2.40335 2.96858 2.34931 2.89931C2.29528 2.83005 2.17516 2.77407 1.93492 2.6621L1.7162 2.56017C0.870789 2.16616 0.448082 1.96914 0.595601 1.78008C0.74312 1.59101 1.36316 1.5351 2.60325 1.42327L2.92408 1.39433C3.27647 1.36256 3.45266 1.34667 3.59414 1.30386C3.73561 1.26106 3.82635 1.19618 4.00782 1.06643L4.17303 0.948312Z" fill="#FFDF08"/>
</svg>
